<svg width="16" height="16" viewBox="0 0 16 16" fill="none" xmlns="http://www.w3.org/2000/svg">
<g clip-path="url(#clip0_17_135)">
<path d="M8.00001 13.7567C11.1793 13.7567 13.7567 11.1793 13.7567 8.00001C13.7567 4.82069 11.1793 2.24335 8.00001 2.24335C4.82069 2.24335 2.24335 4.82069 2.24335 8.00001C2.24335 11.1793 4.82069 13.7567 8.00001 13.7567Z" stroke="black" stroke-width="1.33333" stroke-linecap="round" stroke-linejoin="round"/>
<path d="M12.9853 5.11868C12.9271 5.01513 12.8912 4.90047 12.8802 4.78216C12.8692 4.66385 12.8832 4.54454 12.9213 4.43201L13.1533 3.72534L12.2753 2.84668L11.5673 3.07868C11.4548 3.11683 11.3355 3.13085 11.2172 3.11982C11.0989 3.1088 10.9842 3.07297 10.8807 3.01468M9.48801 2.43734C9.37363 2.40536 9.26726 2.34965 9.17583 2.27385C9.0844 2.19804 9.00996 2.10383 8.95734 1.99734L8.62001 1.33334H7.38001L7.04334 1.99734C6.99073 2.10383 6.91629 2.19804 6.82486 2.27385C6.73343 2.34965 6.62706 2.40536 6.51268 2.43734H9.48801ZM6.51201 13.5627C6.62639 13.5947 6.73276 13.6504 6.82419 13.7262C6.91562 13.802 6.99007 13.8962 7.04268 14.0027L7.37934 14.6667H8.62068L8.95734 14.0027C9.00996 13.8962 9.0844 13.802 9.17583 13.7262C9.26726 13.6504 9.37363 13.5947 9.48801 13.5627H6.51201ZM2.43734 6.51201C2.40536 6.62639 2.34965 6.73276 2.27385 6.82419C2.19804 6.91562 2.10383 6.99007 1.99734 7.04268L1.33334 7.38001V8.62134L1.99734 8.95801C2.10383 9.01062 2.19804 9.08507 2.27385 9.1765C2.34965 9.26793 2.40536 9.37429 2.43734 9.48868V6.51201ZM13.5627 9.48801C13.5947 9.37363 13.6504 9.26726 13.7262 9.17583C13.802 9.0844 13.8962 9.00996 14.0027 8.95734L14.6667 8.62001V7.38001L14.0027 7.04334C13.8962 6.99073 13.802 6.91629 13.7262 6.82486C13.6504 6.73343 13.5947 6.62706 13.5627 6.51268V9.48801ZM5.11868 3.01468C5.01513 3.07297 4.90047 3.1088 4.78216 3.11982C4.66385 3.13085 4.54454 3.11683 4.43201 3.07868L3.72534 2.84668L2.84668 3.72468L3.07868 4.43268C3.11683 4.54521 3.13085 4.66452 3.11982 4.78283C3.1088 4.90114 3.07297 5.0158 3.01468 5.11934L5.11868 3.01468ZM10.8813 12.9853C10.9849 12.9271 11.0995 12.8912 11.2179 12.8802C11.3362 12.8692 11.4555 12.8832 11.568 12.9213L12.2747 13.1533L13.1533 12.2753L12.9213 11.5673C12.8832 11.4548 12.8692 11.3355 12.8802 11.2172C12.8912 11.0989 12.9271 10.9842 12.9853 10.8807L10.8813 12.9853ZM3.01468 10.8813C3.07297 10.9849 3.1088 11.0995 3.11982 11.2179C3.13085 11.3362 3.11683 11.4555 3.07868 11.568L2.84668 12.2747L3.72468 13.1533L4.43268 12.9213C4.54521 12.8832 4.66452 12.8692 4.78283 12.8802C4.90114 12.8912 5.0158 12.9271 5.11934 12.9853L3.01468 10.8813Z" stroke="black" stroke-width="1.33333" stroke-linejoin="round"/>
</g>
<defs>
<clipPath id="clip0_17_135">
<rect width="16" height="16" fill="white"/>
</clipPath>
</defs>
</svg>
